<svg xmlns="http://www.w3.org/2000/svg" viewBox="0 0 29.44195 38.808739">
  <g fill="#0d9488">
    <circle cx="6.695293" cy="28.253501" r="0.10309461"/>
    <circle cx="28.969953" cy="28.732521" r="0.10309461"/>
    <path d="m4.348165 28.978421c4.746517 9.59431 14.567187 12.33721 20.936437 0.22613-3.811164 0.64837-5.082271 0.74999-9.48623 0.35433-1.671977-5.43584-2.979946-10.69296 0.562462-15.86808 4.569888 3.18033 7.453792 2.39487 11.774048 1.08148-3.812299-1.25601-4.257581-6.069664-12.433214-2.2351-5.243597-6.250864-8.56399-4.991514-12.798509-3.219194 3.97382 1.17597 5.055516 5.868554 11.422311 3.694364-2.126064 4.97226-1.990548 10.65162-0.110253 16.42515-4.682999 0.79025-6.793837 0.0412-9.867136-0.45908z"/>
  </g>
</svg>
