<?xml version="1.0" encoding="UTF-8" standalone="no"?>
<!-- Created with Inkscape (http://www.inkscape.org/) -->

<svg
   width="29.44195mm"
   height="38.808739mm"
   viewBox="0 0 29.44195 38.808739"
   version="1.1"
   id="svg24222"
   xmlns:inkscape="http://www.inkscape.org/namespaces/inkscape"
   xmlns:sodipodi="http://sodipodi.sourceforge.net/DTD/sodipodi-0.dtd"
   xmlns="http://www.w3.org/2000/svg"
   xmlns:svg="http://www.w3.org/2000/svg">
  <sodipodi:namedview
     id="namedview24224"
     pagecolor="#ffffff"
     bordercolor="#000000"
     borderopacity="0.25"
     inkscape:showpageshadow="2"
     inkscape:pageopacity="0.0"
     inkscape:pagecheckerboard="0"
     inkscape:deskcolor="#d1d1d1"
     inkscape:document-units="mm"
     showgrid="false" />
  <defs
     id="defs24219" />
  <g
     inkscape:label="Layer 1"
     inkscape:groupmode="layer"
     id="layer1"
     transform="translate(-18.926924,-88.467519)">
    <circle
       id="path25697-2"
       style="fill:#000000;stroke:#000000;stroke-width:0.106185"
       cx="25.622217"
       cy="116.72102"
       r="0.10309461" />
    <circle
       id="path25699-2"
       style="fill:#000000;stroke:#000000;stroke-width:0.106185"
       cx="47.896877"
       cy="117.20004"
       r="0.10309461" />
    <path
       style="fill:#000000;stroke-width:1.32078;stroke-linecap:round;stroke-linejoin:round;stroke-miterlimit:3.5;stroke-dashoffset:6.30275;paint-order:markers stroke fill"
       d="m 23.275089,117.44544 c 4.746517,9.59431 14.567187,12.33721 20.936437,0.22613 -3.811164,0.64837 -5.082271,0.74999 -9.48623,0.35433 -1.671977,-5.43584 -2.979946,-10.69296 0.562462,-15.86808 4.569888,3.18033 7.453792,2.39487 11.774048,1.08148 -3.812299,-1.25601 -4.257581,-6.069664 -12.433214,-2.2351 -5.243597,-6.250864 -8.56399,-4.991514 -12.798509,-3.219194 3.97382,1.17597 5.055516,5.868554 11.422311,3.694364 -2.126064,4.97226 -1.990548,10.65162 -0.110253,16.42515 -4.682999,0.79025 -6.793837,0.0412 -9.867136,-0.45908 z"
       id="path25701-1-4"
       sodipodi:nodetypes="ccccccccccc" />
    <ellipse
       style="fill:none;fill-opacity:0.00408995;stroke:#000000;stroke-width:0.413159;stroke-linecap:round;stroke-linejoin:round;stroke-miterlimit:3.5;stroke-dasharray:none;stroke-dashoffset:6.30275;stroke-opacity:1;paint-order:markers stroke fill;stop-color:#000000"
       id="path26360-9"
       cx="33.6479"
       cy="107.87189"
       rx="14.514397"
       ry="19.197794" />
  </g>
</svg>
